<mxfile host="app.diagrams.net" agent="Mozilla/5.0 (Windows NT 10.0; Win64; x64) AppleWebKit/537.36 (KHTML, like Gecko) Chrome/131.0.0.0 Safari/537.36" version="25.0.0">
  <diagram name="Page-1" id="EHh35CeKOp9cFkqjK07f">
    <mxGraphModel dx="1345" dy="865" grid="1" gridSize="10" guides="1" tooltips="1" connect="1" arrows="1" fold="1" page="1" pageScale="1" pageWidth="850" pageHeight="1100" math="0" shadow="0">
      <root>
        <mxCell id="0" />
        <mxCell id="1" parent="0" />
        <mxCell id="xwbWKpW1-eLLA95oIHVe-1" value="" style="edgeStyle=none;curved=1;rounded=0;orthogonalLoop=1;jettySize=auto;html=1;fontSize=12;startSize=8;endSize=8;entryX=0.5;entryY=0;entryDx=0;entryDy=0;" edge="1" parent="1" source="xwbWKpW1-eLLA95oIHVe-2" target="xwbWKpW1-eLLA95oIHVe-5">
          <mxGeometry relative="1" as="geometry" />
        </mxCell>
        <mxCell id="xwbWKpW1-eLLA95oIHVe-2" value="Start" style="ellipse;whiteSpace=wrap;html=1;" vertex="1" parent="1">
          <mxGeometry x="100" y="25" width="120" height="80" as="geometry" />
        </mxCell>
        <mxCell id="xwbWKpW1-eLLA95oIHVe-4" value="" style="edgeStyle=none;curved=1;rounded=0;orthogonalLoop=1;jettySize=auto;html=1;fontSize=12;startSize=8;endSize=8;" edge="1" parent="1" source="xwbWKpW1-eLLA95oIHVe-5" target="xwbWKpW1-eLLA95oIHVe-7">
          <mxGeometry relative="1" as="geometry" />
        </mxCell>
        <mxCell id="xwbWKpW1-eLLA95oIHVe-5" value="&lt;div&gt;int N, M;&lt;/div&gt;" style="rounded=0;whiteSpace=wrap;html=1;" vertex="1" parent="1">
          <mxGeometry x="95" y="135" width="130" height="70" as="geometry" />
        </mxCell>
        <mxCell id="xwbWKpW1-eLLA95oIHVe-23" value="" style="edgeStyle=none;curved=1;rounded=0;orthogonalLoop=1;jettySize=auto;html=1;fontSize=12;startSize=8;endSize=8;" edge="1" parent="1" source="xwbWKpW1-eLLA95oIHVe-7" target="xwbWKpW1-eLLA95oIHVe-22">
          <mxGeometry relative="1" as="geometry" />
        </mxCell>
        <mxCell id="xwbWKpW1-eLLA95oIHVe-7" value="input&lt;br&gt;N and M" style="shape=parallelogram;perimeter=parallelogramPerimeter;whiteSpace=wrap;html=1;fixedSize=1;" vertex="1" parent="1">
          <mxGeometry x="20" y="235" width="280" height="100" as="geometry" />
        </mxCell>
        <mxCell id="xwbWKpW1-eLLA95oIHVe-8" value="" style="edgeStyle=none;curved=1;rounded=0;orthogonalLoop=1;jettySize=auto;html=1;fontSize=12;startSize=8;endSize=8;" edge="1" parent="1" source="xwbWKpW1-eLLA95oIHVe-9" target="xwbWKpW1-eLLA95oIHVe-13">
          <mxGeometry relative="1" as="geometry" />
        </mxCell>
        <mxCell id="xwbWKpW1-eLLA95oIHVe-9" value="int i = 0;" style="rounded=0;whiteSpace=wrap;html=1;" vertex="1" parent="1">
          <mxGeometry x="100" y="475" width="120" height="60" as="geometry" />
        </mxCell>
        <mxCell id="xwbWKpW1-eLLA95oIHVe-10" value="" style="edgeStyle=none;curved=1;rounded=0;orthogonalLoop=1;jettySize=auto;html=1;fontSize=12;startSize=8;endSize=8;entryX=0.5;entryY=0;entryDx=0;entryDy=0;" edge="1" parent="1" source="xwbWKpW1-eLLA95oIHVe-13" target="xwbWKpW1-eLLA95oIHVe-19">
          <mxGeometry relative="1" as="geometry">
            <mxPoint x="160" y="695" as="targetPoint" />
          </mxGeometry>
        </mxCell>
        <mxCell id="xwbWKpW1-eLLA95oIHVe-11" value="Yes" style="edgeLabel;html=1;align=center;verticalAlign=middle;resizable=0;points=[];fontSize=12;" vertex="1" connectable="0" parent="xwbWKpW1-eLLA95oIHVe-10">
          <mxGeometry x="-0.1947" y="2" relative="1" as="geometry">
            <mxPoint as="offset" />
          </mxGeometry>
        </mxCell>
        <mxCell id="xwbWKpW1-eLLA95oIHVe-12" style="edgeStyle=none;curved=0;rounded=0;orthogonalLoop=1;jettySize=auto;html=1;exitX=0;exitY=0.5;exitDx=0;exitDy=0;fontSize=12;startSize=8;endSize=8;" edge="1" parent="1" source="xwbWKpW1-eLLA95oIHVe-13">
          <mxGeometry relative="1" as="geometry">
            <mxPoint x="160" y="995" as="targetPoint" />
            <Array as="points">
              <mxPoint x="20" y="655" />
              <mxPoint x="20" y="995" />
            </Array>
          </mxGeometry>
        </mxCell>
        <mxCell id="xwbWKpW1-eLLA95oIHVe-21" value="No" style="edgeLabel;html=1;align=center;verticalAlign=middle;resizable=0;points=[];fontSize=12;" vertex="1" connectable="0" parent="xwbWKpW1-eLLA95oIHVe-12">
          <mxGeometry x="-0.8329" y="1" relative="1" as="geometry">
            <mxPoint as="offset" />
          </mxGeometry>
        </mxCell>
        <mxCell id="xwbWKpW1-eLLA95oIHVe-13" value="i &amp;lt; M" style="rhombus;whiteSpace=wrap;html=1;" vertex="1" parent="1">
          <mxGeometry x="120" y="615" width="80" height="80" as="geometry" />
        </mxCell>
        <mxCell id="xwbWKpW1-eLLA95oIHVe-14" value="" style="edgeStyle=none;curved=1;rounded=0;orthogonalLoop=1;jettySize=auto;html=1;fontSize=12;startSize=8;endSize=8;entryX=0.5;entryY=0;entryDx=0;entryDy=0;" edge="1" parent="1" source="xwbWKpW1-eLLA95oIHVe-15" target="xwbWKpW1-eLLA95oIHVe-25">
          <mxGeometry relative="1" as="geometry">
            <mxPoint x="160" y="1025" as="targetPoint" />
          </mxGeometry>
        </mxCell>
        <mxCell id="xwbWKpW1-eLLA95oIHVe-15" value="++i" style="rounded=0;whiteSpace=wrap;html=1;" vertex="1" parent="1">
          <mxGeometry x="100" y="895" width="120" height="60" as="geometry" />
        </mxCell>
        <mxCell id="xwbWKpW1-eLLA95oIHVe-18" value="" style="edgeStyle=none;curved=1;rounded=0;orthogonalLoop=1;jettySize=auto;html=1;fontSize=12;startSize=8;endSize=8;" edge="1" parent="1" source="xwbWKpW1-eLLA95oIHVe-19" target="xwbWKpW1-eLLA95oIHVe-15">
          <mxGeometry relative="1" as="geometry" />
        </mxCell>
        <mxCell id="xwbWKpW1-eLLA95oIHVe-19" value="input&lt;br&gt;candles[i]" style="shape=parallelogram;perimeter=parallelogramPerimeter;whiteSpace=wrap;html=1;fixedSize=1;" vertex="1" parent="1">
          <mxGeometry x="77.5" y="775" width="165" height="60" as="geometry" />
        </mxCell>
        <mxCell id="xwbWKpW1-eLLA95oIHVe-20" value="" style="endArrow=classic;html=1;rounded=0;fontSize=12;startSize=8;endSize=8;curved=0;" edge="1" parent="1">
          <mxGeometry width="50" height="50" relative="1" as="geometry">
            <mxPoint x="160" y="975" as="sourcePoint" />
            <mxPoint x="160" y="565" as="targetPoint" />
            <Array as="points">
              <mxPoint x="300" y="975" />
              <mxPoint x="300" y="565" />
            </Array>
          </mxGeometry>
        </mxCell>
        <mxCell id="xwbWKpW1-eLLA95oIHVe-24" value="" style="edgeStyle=none;curved=1;rounded=0;orthogonalLoop=1;jettySize=auto;html=1;fontSize=12;startSize=8;endSize=8;" edge="1" parent="1" source="xwbWKpW1-eLLA95oIHVe-22" target="xwbWKpW1-eLLA95oIHVe-9">
          <mxGeometry relative="1" as="geometry" />
        </mxCell>
        <mxCell id="xwbWKpW1-eLLA95oIHVe-22" value="vector&amp;lt;int&amp;gt; candles(M);" style="rounded=0;whiteSpace=wrap;html=1;" vertex="1" parent="1">
          <mxGeometry x="70" y="375" width="180" height="60" as="geometry" />
        </mxCell>
        <mxCell id="xwbWKpW1-eLLA95oIHVe-25" value="1" style="ellipse;whiteSpace=wrap;html=1;aspect=fixed;" vertex="1" parent="1">
          <mxGeometry x="140" y="1035" width="40" height="40" as="geometry" />
        </mxCell>
        <mxCell id="xwbWKpW1-eLLA95oIHVe-47" value="" style="edgeStyle=none;curved=1;rounded=0;orthogonalLoop=1;jettySize=auto;html=1;fontSize=12;startSize=8;endSize=8;" edge="1" parent="1" source="xwbWKpW1-eLLA95oIHVe-26" target="xwbWKpW1-eLLA95oIHVe-28">
          <mxGeometry relative="1" as="geometry" />
        </mxCell>
        <mxCell id="xwbWKpW1-eLLA95oIHVe-26" value="1" style="ellipse;whiteSpace=wrap;html=1;aspect=fixed;" vertex="1" parent="1">
          <mxGeometry x="570" y="30" width="40" height="40" as="geometry" />
        </mxCell>
        <mxCell id="xwbWKpW1-eLLA95oIHVe-55" value="" style="edgeStyle=none;curved=1;rounded=0;orthogonalLoop=1;jettySize=auto;html=1;fontSize=12;startSize=8;endSize=8;" edge="1" parent="1" source="xwbWKpW1-eLLA95oIHVe-28" target="xwbWKpW1-eLLA95oIHVe-37">
          <mxGeometry relative="1" as="geometry" />
        </mxCell>
        <mxCell id="xwbWKpW1-eLLA95oIHVe-28" value="&lt;div&gt;double low = 0.0, high = *max_element(candles.begin(), candles.end());&lt;/div&gt;&lt;div&gt;double mid;&lt;/div&gt;&lt;div&gt;&lt;br&gt;&lt;/div&gt;" style="rounded=0;whiteSpace=wrap;html=1;" vertex="1" parent="1">
          <mxGeometry x="380" y="135" width="420" height="70" as="geometry" />
        </mxCell>
        <mxCell id="xwbWKpW1-eLLA95oIHVe-56" value="" style="edgeStyle=none;curved=1;rounded=0;orthogonalLoop=1;jettySize=auto;html=1;fontSize=12;startSize=8;endSize=8;" edge="1" parent="1" source="xwbWKpW1-eLLA95oIHVe-37" target="xwbWKpW1-eLLA95oIHVe-39">
          <mxGeometry relative="1" as="geometry" />
        </mxCell>
        <mxCell id="xwbWKpW1-eLLA95oIHVe-57" value="Yes" style="edgeLabel;html=1;align=center;verticalAlign=middle;resizable=0;points=[];fontSize=12;" vertex="1" connectable="0" parent="xwbWKpW1-eLLA95oIHVe-56">
          <mxGeometry x="-0.2344" y="4" relative="1" as="geometry">
            <mxPoint as="offset" />
          </mxGeometry>
        </mxCell>
        <mxCell id="xwbWKpW1-eLLA95oIHVe-67" style="edgeStyle=none;curved=0;rounded=0;orthogonalLoop=1;jettySize=auto;html=1;fontSize=12;startSize=8;endSize=8;exitX=0;exitY=0.5;exitDx=0;exitDy=0;" edge="1" parent="1" source="xwbWKpW1-eLLA95oIHVe-37">
          <mxGeometry relative="1" as="geometry">
            <mxPoint x="600" y="860" as="targetPoint" />
            <Array as="points">
              <mxPoint x="400" y="310" />
              <mxPoint x="400" y="860" />
            </Array>
          </mxGeometry>
        </mxCell>
        <mxCell id="xwbWKpW1-eLLA95oIHVe-68" value="No" style="edgeLabel;html=1;align=center;verticalAlign=middle;resizable=0;points=[];fontSize=12;" vertex="1" connectable="0" parent="xwbWKpW1-eLLA95oIHVe-67">
          <mxGeometry x="-0.8816" y="-5" relative="1" as="geometry">
            <mxPoint x="1" as="offset" />
          </mxGeometry>
        </mxCell>
        <mxCell id="xwbWKpW1-eLLA95oIHVe-37" value="high - low &amp;gt; 1e-7" style="rhombus;whiteSpace=wrap;html=1;" vertex="1" parent="1">
          <mxGeometry x="510" y="270" width="160" height="80" as="geometry" />
        </mxCell>
        <mxCell id="xwbWKpW1-eLLA95oIHVe-58" value="" style="edgeStyle=none;curved=1;rounded=0;orthogonalLoop=1;jettySize=auto;html=1;fontSize=12;startSize=8;endSize=8;" edge="1" parent="1" source="xwbWKpW1-eLLA95oIHVe-39" target="xwbWKpW1-eLLA95oIHVe-49">
          <mxGeometry relative="1" as="geometry" />
        </mxCell>
        <mxCell id="xwbWKpW1-eLLA95oIHVe-39" value="mid = (low + high) / 2;" style="rounded=0;whiteSpace=wrap;html=1;" vertex="1" parent="1">
          <mxGeometry x="500" y="415" width="180" height="60" as="geometry" />
        </mxCell>
        <mxCell id="xwbWKpW1-eLLA95oIHVe-59" style="edgeStyle=none;curved=1;rounded=0;orthogonalLoop=1;jettySize=auto;html=1;entryX=0.5;entryY=0;entryDx=0;entryDy=0;fontSize=12;startSize=8;endSize=8;exitX=0;exitY=1;exitDx=0;exitDy=0;" edge="1" parent="1" source="xwbWKpW1-eLLA95oIHVe-49" target="xwbWKpW1-eLLA95oIHVe-52">
          <mxGeometry relative="1" as="geometry" />
        </mxCell>
        <mxCell id="xwbWKpW1-eLLA95oIHVe-60" value="false" style="edgeLabel;html=1;align=center;verticalAlign=middle;resizable=0;points=[];fontSize=12;" vertex="1" connectable="0" parent="xwbWKpW1-eLLA95oIHVe-59">
          <mxGeometry x="-0.3347" y="2" relative="1" as="geometry">
            <mxPoint x="-7" y="11" as="offset" />
          </mxGeometry>
        </mxCell>
        <mxCell id="xwbWKpW1-eLLA95oIHVe-62" style="edgeStyle=none;curved=1;rounded=0;orthogonalLoop=1;jettySize=auto;html=1;exitX=1;exitY=1;exitDx=0;exitDy=0;entryX=0.5;entryY=0;entryDx=0;entryDy=0;fontSize=12;startSize=8;endSize=8;" edge="1" parent="1" source="xwbWKpW1-eLLA95oIHVe-49" target="xwbWKpW1-eLLA95oIHVe-51">
          <mxGeometry relative="1" as="geometry" />
        </mxCell>
        <mxCell id="xwbWKpW1-eLLA95oIHVe-63" value="true" style="edgeLabel;html=1;align=center;verticalAlign=middle;resizable=0;points=[];fontSize=12;" vertex="1" connectable="0" parent="xwbWKpW1-eLLA95oIHVe-62">
          <mxGeometry x="-0.2068" y="2" relative="1" as="geometry">
            <mxPoint x="1" as="offset" />
          </mxGeometry>
        </mxCell>
        <mxCell id="xwbWKpW1-eLLA95oIHVe-49" value="canMakeCandles(candles, N, mid)" style="rhombus;whiteSpace=wrap;html=1;" vertex="1" parent="1">
          <mxGeometry x="465" y="535" width="250" height="80" as="geometry" />
        </mxCell>
        <mxCell id="xwbWKpW1-eLLA95oIHVe-65" style="edgeStyle=none;curved=0;rounded=0;orthogonalLoop=1;jettySize=auto;html=1;fontSize=12;startSize=8;endSize=8;entryX=0.5;entryY=0;entryDx=0;entryDy=0;" edge="1" parent="1" source="xwbWKpW1-eLLA95oIHVe-51" target="xwbWKpW1-eLLA95oIHVe-53">
          <mxGeometry relative="1" as="geometry">
            <mxPoint x="590" y="850" as="targetPoint" />
            <Array as="points">
              <mxPoint x="700" y="790" />
              <mxPoint x="600" y="790" />
            </Array>
          </mxGeometry>
        </mxCell>
        <mxCell id="xwbWKpW1-eLLA95oIHVe-51" value="low = mid;" style="rounded=0;whiteSpace=wrap;html=1;" vertex="1" parent="1">
          <mxGeometry x="640" y="695" width="120" height="60" as="geometry" />
        </mxCell>
        <mxCell id="xwbWKpW1-eLLA95oIHVe-64" style="edgeStyle=none;curved=0;rounded=0;orthogonalLoop=1;jettySize=auto;html=1;entryX=0.5;entryY=0;entryDx=0;entryDy=0;fontSize=12;startSize=8;endSize=8;" edge="1" parent="1" source="xwbWKpW1-eLLA95oIHVe-52" target="xwbWKpW1-eLLA95oIHVe-53">
          <mxGeometry relative="1" as="geometry">
            <Array as="points">
              <mxPoint x="490" y="790" />
              <mxPoint x="600" y="790" />
            </Array>
          </mxGeometry>
        </mxCell>
        <mxCell id="xwbWKpW1-eLLA95oIHVe-52" value="high = mid;" style="rounded=0;whiteSpace=wrap;html=1;" vertex="1" parent="1">
          <mxGeometry x="430" y="695" width="120" height="60" as="geometry" />
        </mxCell>
        <mxCell id="xwbWKpW1-eLLA95oIHVe-66" value="" style="edgeStyle=none;curved=1;rounded=0;orthogonalLoop=1;jettySize=auto;html=1;fontSize=12;startSize=8;endSize=8;" edge="1" parent="1" source="xwbWKpW1-eLLA95oIHVe-53" target="xwbWKpW1-eLLA95oIHVe-54">
          <mxGeometry relative="1" as="geometry" />
        </mxCell>
        <mxCell id="xwbWKpW1-eLLA95oIHVe-53" value="output&lt;br&gt;low&lt;br&gt;(precision 8)" style="shape=parallelogram;perimeter=parallelogramPerimeter;whiteSpace=wrap;html=1;fixedSize=1;" vertex="1" parent="1">
          <mxGeometry x="540" y="890" width="120" height="60" as="geometry" />
        </mxCell>
        <mxCell id="xwbWKpW1-eLLA95oIHVe-54" value="End" style="ellipse;whiteSpace=wrap;html=1;" vertex="1" parent="1">
          <mxGeometry x="540" y="990" width="120" height="80" as="geometry" />
        </mxCell>
        <mxCell id="xwbWKpW1-eLLA95oIHVe-69" value="" style="endArrow=classic;html=1;rounded=0;fontSize=12;startSize=8;endSize=8;curved=0;" edge="1" parent="1">
          <mxGeometry width="50" height="50" relative="1" as="geometry">
            <mxPoint x="600" y="830" as="sourcePoint" />
            <mxPoint x="590" y="240" as="targetPoint" />
            <Array as="points">
              <mxPoint x="800" y="830" />
              <mxPoint x="800" y="240" />
            </Array>
          </mxGeometry>
        </mxCell>
        <mxCell id="xwbWKpW1-eLLA95oIHVe-75" value="" style="edgeStyle=none;curved=1;rounded=0;orthogonalLoop=1;jettySize=auto;html=1;fontSize=12;startSize=8;endSize=8;" edge="1" parent="1" source="xwbWKpW1-eLLA95oIHVe-70" target="xwbWKpW1-eLLA95oIHVe-72">
          <mxGeometry relative="1" as="geometry" />
        </mxCell>
        <mxCell id="xwbWKpW1-eLLA95oIHVe-70" value="bool canMakeCandles(vector&amp;lt;int&amp;gt; &amp;amp;candles, int N, double length)" style="shape=process;whiteSpace=wrap;html=1;backgroundOutline=1;" vertex="1" parent="1">
          <mxGeometry x="860" y="60" width="690" height="60" as="geometry" />
        </mxCell>
        <mxCell id="xwbWKpW1-eLLA95oIHVe-71" value="return&amp;nbsp;count &amp;gt;= N" style="ellipse;whiteSpace=wrap;html=1;" vertex="1" parent="1">
          <mxGeometry x="1145" y="940" width="120" height="80" as="geometry" />
        </mxCell>
        <mxCell id="xwbWKpW1-eLLA95oIHVe-76" value="" style="edgeStyle=none;curved=1;rounded=0;orthogonalLoop=1;jettySize=auto;html=1;fontSize=12;startSize=8;endSize=8;" edge="1" parent="1" source="xwbWKpW1-eLLA95oIHVe-72" target="xwbWKpW1-eLLA95oIHVe-73">
          <mxGeometry relative="1" as="geometry" />
        </mxCell>
        <mxCell id="xwbWKpW1-eLLA95oIHVe-72" value="int count = 0;" style="rounded=0;whiteSpace=wrap;html=1;" vertex="1" parent="1">
          <mxGeometry x="1145" y="160" width="120" height="60" as="geometry" />
        </mxCell>
        <mxCell id="xwbWKpW1-eLLA95oIHVe-80" value="" style="edgeStyle=none;curved=1;rounded=0;orthogonalLoop=1;jettySize=auto;html=1;fontSize=12;startSize=8;endSize=8;" edge="1" parent="1" source="xwbWKpW1-eLLA95oIHVe-73" target="xwbWKpW1-eLLA95oIHVe-79">
          <mxGeometry relative="1" as="geometry" />
        </mxCell>
        <mxCell id="xwbWKpW1-eLLA95oIHVe-88" value="Yes" style="edgeLabel;html=1;align=center;verticalAlign=middle;resizable=0;points=[];fontSize=12;" vertex="1" connectable="0" parent="xwbWKpW1-eLLA95oIHVe-80">
          <mxGeometry x="-0.0372" y="4" relative="1" as="geometry">
            <mxPoint as="offset" />
          </mxGeometry>
        </mxCell>
        <mxCell id="xwbWKpW1-eLLA95oIHVe-91" style="edgeStyle=none;curved=0;rounded=0;orthogonalLoop=1;jettySize=auto;html=1;fontSize=12;startSize=8;endSize=8;exitX=0;exitY=0.5;exitDx=0;exitDy=0;" edge="1" parent="1" source="xwbWKpW1-eLLA95oIHVe-73">
          <mxGeometry relative="1" as="geometry">
            <mxPoint x="1205" y="900" as="targetPoint" />
            <Array as="points">
              <mxPoint x="970" y="330" />
              <mxPoint x="970" y="900" />
            </Array>
          </mxGeometry>
        </mxCell>
        <mxCell id="xwbWKpW1-eLLA95oIHVe-92" value="No" style="edgeLabel;html=1;align=center;verticalAlign=middle;resizable=0;points=[];fontSize=12;" vertex="1" connectable="0" parent="xwbWKpW1-eLLA95oIHVe-91">
          <mxGeometry x="-0.8879" y="2" relative="1" as="geometry">
            <mxPoint as="offset" />
          </mxGeometry>
        </mxCell>
        <mxCell id="xwbWKpW1-eLLA95oIHVe-73" value="any elements in candles vector?" style="rhombus;whiteSpace=wrap;html=1;" vertex="1" parent="1">
          <mxGeometry x="1075" y="290" width="260" height="80" as="geometry" />
        </mxCell>
        <mxCell id="xwbWKpW1-eLLA95oIHVe-83" value="" style="edgeStyle=none;curved=1;rounded=0;orthogonalLoop=1;jettySize=auto;html=1;fontSize=12;startSize=8;endSize=8;" edge="1" parent="1" source="xwbWKpW1-eLLA95oIHVe-74" target="xwbWKpW1-eLLA95oIHVe-81">
          <mxGeometry relative="1" as="geometry" />
        </mxCell>
        <mxCell id="xwbWKpW1-eLLA95oIHVe-74" value="count += (int)(candle / length);" style="rounded=0;whiteSpace=wrap;html=1;" vertex="1" parent="1">
          <mxGeometry x="1105" y="590" width="200" height="60" as="geometry" />
        </mxCell>
        <mxCell id="xwbWKpW1-eLLA95oIHVe-82" value="" style="edgeStyle=none;curved=1;rounded=0;orthogonalLoop=1;jettySize=auto;html=1;fontSize=12;startSize=8;endSize=8;" edge="1" parent="1" source="xwbWKpW1-eLLA95oIHVe-79" target="xwbWKpW1-eLLA95oIHVe-74">
          <mxGeometry relative="1" as="geometry" />
        </mxCell>
        <mxCell id="xwbWKpW1-eLLA95oIHVe-79" value="initialize candle to&lt;div&gt;1-st element&lt;/div&gt;" style="rounded=0;whiteSpace=wrap;html=1;" vertex="1" parent="1">
          <mxGeometry x="1145" y="450" width="120" height="60" as="geometry" />
        </mxCell>
        <mxCell id="xwbWKpW1-eLLA95oIHVe-85" value="" style="edgeStyle=none;curved=1;rounded=0;orthogonalLoop=1;jettySize=auto;html=1;fontSize=12;startSize=8;endSize=8;" edge="1" parent="1" source="xwbWKpW1-eLLA95oIHVe-81" target="xwbWKpW1-eLLA95oIHVe-84">
          <mxGeometry relative="1" as="geometry" />
        </mxCell>
        <mxCell id="xwbWKpW1-eLLA95oIHVe-90" value="Yes" style="edgeLabel;html=1;align=center;verticalAlign=middle;resizable=0;points=[];fontSize=12;" vertex="1" connectable="0" parent="xwbWKpW1-eLLA95oIHVe-85">
          <mxGeometry x="-0.2273" y="2" relative="1" as="geometry">
            <mxPoint as="offset" />
          </mxGeometry>
        </mxCell>
        <mxCell id="xwbWKpW1-eLLA95oIHVe-87" value="" style="edgeStyle=none;curved=1;rounded=0;orthogonalLoop=1;jettySize=auto;html=1;fontSize=12;startSize=8;endSize=8;" edge="1" parent="1" source="xwbWKpW1-eLLA95oIHVe-81" target="xwbWKpW1-eLLA95oIHVe-71">
          <mxGeometry relative="1" as="geometry" />
        </mxCell>
        <mxCell id="xwbWKpW1-eLLA95oIHVe-89" value="No" style="edgeLabel;html=1;align=center;verticalAlign=middle;resizable=0;points=[];fontSize=12;" vertex="1" connectable="0" parent="xwbWKpW1-eLLA95oIHVe-87">
          <mxGeometry x="-0.2068" y="-1" relative="1" as="geometry">
            <mxPoint as="offset" />
          </mxGeometry>
        </mxCell>
        <mxCell id="xwbWKpW1-eLLA95oIHVe-81" value="any remaining elements in candles vector?" style="rhombus;whiteSpace=wrap;html=1;" vertex="1" parent="1">
          <mxGeometry x="1047.5" y="720" width="315" height="100" as="geometry" />
        </mxCell>
        <mxCell id="xwbWKpW1-eLLA95oIHVe-93" style="edgeStyle=none;curved=0;rounded=0;orthogonalLoop=1;jettySize=auto;html=1;fontSize=12;startSize=8;endSize=8;" edge="1" parent="1" source="xwbWKpW1-eLLA95oIHVe-84">
          <mxGeometry relative="1" as="geometry">
            <mxPoint x="1205" y="250" as="targetPoint" />
            <Array as="points">
              <mxPoint x="1510" y="250" />
            </Array>
          </mxGeometry>
        </mxCell>
        <mxCell id="xwbWKpW1-eLLA95oIHVe-84" value="initialize candle to&lt;br&gt;next element" style="rounded=0;whiteSpace=wrap;html=1;" vertex="1" parent="1">
          <mxGeometry x="1450" y="740" width="120" height="60" as="geometry" />
        </mxCell>
      </root>
    </mxGraphModel>
  </diagram>
</mxfile>
